<?xml version="1.0" encoding="UTF-8"?><svg id="Capa_1" xmlns="http://www.w3.org/2000/svg" viewBox="0 0 372.6 284.07"><defs><style>.cls-1{fill:#1d1d1b;}.cls-2,.cls-3{fill:none;}.cls-4{stroke-width:.5px;}.cls-4,.cls-3,.cls-5{stroke-miterlimit:10;}.cls-4,.cls-5{fill:#fff;stroke:#1d1d1b;}.cls-6{fill:#20a038;}.cls-3{stroke:#33a548;}</style></defs><path class="cls-4" d="M194.01.25C115.71.25,52.23,63.73,52.23,142.03s63.48,141.78,141.78,141.78,141.78-63.48,141.78-141.78S272.32.25,194.01.25ZM194.01,218.27c-42.11,0-76.24-34.13-76.24-76.24s34.13-76.24,76.24-76.24,76.24,34.13,76.24,76.24-34.13,76.24-76.24,76.24Z"/><circle class="cls-3" cx="194.29" cy="142.44" r="136.74"/><polygon class="cls-2" points="202.62 135.03 202.62 135.03 202.62 135.03 202.62 135.03"/><path class="cls-2" d="M194.29,62.65c-40.01,0-73.14,29.45-78.9,67.85l8.34-1.62c1.73-.34,3.52.18,4.8,1.39,1.28,1.21,1.9,2.96,1.66,4.71l-1.92,14.17,7.11-19.81c.65-1.82,2.21-3.16,4.11-3.52l12.4-2.4c1.47-.29,3.01.05,4.24.93s2.03,2.23,2.23,3.72l6.14,46.24c.38,2.87-1.54,5.54-4.38,6.09l-11.66,2.26c-1.5.29-3.04-.06-4.27-.96-1.23-.9-2.03-2.27-2.2-3.78l-.42-3.62-1.72.33-2.64,7.46c-.65,1.83-2.21,3.18-4.12,3.54l-5.2,1.01c14.3,21.44,38.71,35.57,66.41,35.57,38.52,0,70.66-27.3,78.14-63.6l-12.53,2.43c-.35.07-.7.1-1.04.1-.57,0-1.13-.11-1.67-.28-.7.58-1.52,1-2.43,1.18l-11.69,2.27c-2.68.52-5.26-1-6.17-3.47l-.13.91c-.32,2.32-2.08,4.19-4.38,4.63l-11.27,2.19c-.35.07-.7.1-1.04.1-.7,0-1.38-.13-2.02-.39-.74.7-1.66,1.21-2.71,1.41l-5.71,1.11c-1.03.2-2.08.1-3.03-.28-2.32,1.64-5.02,2.77-8.03,3.36-1.53.3-3,.44-4.39.44-3.14,0-5.93-.75-8.34-2.25-3.18-1.98-5.65-4.83-7.35-8.49-1.58-3.4-2.38-7.53-2.38-12.28,0-8.91,2.15-17.12,6.39-24.41,4.58-7.87,10.88-12.63,18.74-14.16,8.37-1.62,15.01.92,19.2,7.04l.82-6.02c.32-2.32,2.08-4.19,4.38-4.64l17.26-3.35c6.44-1.25,11.53-.25,15.12,2.98.54.48,1.02,1.01,1.47,1.56l.55-4.08c.25-1.85,1.43-3.4,3.06-4.18-13.86-23.58-39.48-39.41-68.81-39.41Z"/><path class="cls-6" d="M293.57,154.53c-.35.07-.7.1-1.04.1-.45,0-.89-.07-1.32-.18-.64.47-1.37.8-2.18.96l-16.6,3.22c-7.48,36.3-39.62,63.6-78.14,63.6-27.71,0-52.11-14.13-66.41-35.57l-4.6.89c-.35.07-.7.1-1.04.1-.37,0-.73-.05-1.08-.12-.58.38-1.23.67-1.94.81l-8.79,1.7c-2.49.48-4.98-.81-6.02-3.11l-3.48-7.67-1.24,9.09c-.32,2.32-2.08,4.19-4.38,4.63l-9.63,1.87c-.35.07-.7.1-1.04.1-1.38,0-2.73-.53-3.76-1.49-.97-.92-1.56-2.14-1.69-3.45-1.27,1.67-2.65,3.14-4.11,4.43,20.06,45.93,65.88,78.03,119.2,78.03,69.83,0,126.8-55.05,129.88-124.12-.46.24-.95.44-1.47.54l-29.13,5.65Z"/><path class="cls-6" d="M81.62,144.17c1.2,1.23,2.21,2.63,3.08,4.15l1.12-8.29c.32-2.32,2.08-4.19,4.38-4.64l10.65-2.06c2.53-.49,5.06.85,6.07,3.22l2.14,4.99.84-6.18c.32-2.32,2.08-4.19,4.38-4.63l1.11-.22c5.76-38.4,38.89-67.85,78.9-67.85,29.33,0,54.95,15.84,68.81,39.41.42-.2.85-.36,1.32-.45l28.4-5.51c.94-.18,1.89-.11,2.77.19.7-.59,1.54-1.03,2.49-1.21l16.06-3.11c-19.71-46.74-65.95-79.55-119.86-79.55-70.73,0-128.26,56.47-129.98,126.78.05,0,.09-.02.14-.03,6.76-1.31,12.7.42,17.17,5Z"/><path class="cls-5" d="M158.36,128.08c-.2-1.49-1-2.84-2.23-3.72-1.22-.88-2.76-1.22-4.24-.93l-12.4,2.4c-1.9.37-3.46,1.71-4.11,3.52l-7.11,19.81,1.92-14.17c.24-1.75-.38-3.5-1.66-4.71-1.28-1.21-3.07-1.73-4.8-1.39l-8.34,1.62-1.11.22c-2.3.45-4.06,2.31-4.38,4.63l-.84,6.18-2.14-4.99c-1.01-2.37-3.54-3.71-6.07-3.22l-10.65,2.06c-2.3.45-4.07,2.31-4.38,4.64l-1.12,8.29c-.86-1.52-1.87-2.92-3.08-4.15-4.47-4.58-10.41-6.31-17.17-5-.05,0-.09.02-.14.03-5.96,1.19-11.04,4.26-15.19,9.11-.27-.88-.76-1.69-1.45-2.35-1.28-1.21-3.07-1.74-4.8-1.4l-30.32,5.88c-2.3.45-4.06,2.31-4.38,4.63l-1.45,10.56c-.24,1.75.38,3.5,1.66,4.72,1.28,1.21,3.07,1.73,4.8,1.4l3.02-.59-13.45,20.53c-.45.68-.73,1.45-.84,2.26l-1.36,10.03c-.24,1.75.38,3.5,1.66,4.71,1.02.97,2.37,1.49,3.76,1.49.35,0,.7-.03,1.04-.1l32.28-6.26c2.3-.45,4.06-2.31,4.38-4.63l.69-5.07c.57.68,1.18,1.33,1.85,1.91,3.64,3.18,7.95,4.81,12.65,4.81,1.36,0,2.75-.14,4.16-.41,4.55-.88,8.57-2.92,12.06-6.02,1.46-1.3,2.84-2.76,4.11-4.43.13,1.3.72,2.53,1.69,3.45,1.03.97,2.37,1.49,3.76,1.49.35,0,.7-.03,1.04-.1l9.63-1.87c2.3-.45,4.06-2.31,4.38-4.63l1.24-9.09,3.48,7.67c1.04,2.31,3.53,3.6,6.02,3.11l8.79-1.7c.71-.14,1.36-.42,1.94-.81.35.07.72.12,1.08.12.35,0,.69-.03,1.04-.1l4.6-.89,5.2-1.01c1.9-.37,3.47-1.72,4.12-3.54l2.64-7.46,1.72-.33.42,3.62c.18,1.51.97,2.88,2.2,3.78s2.78,1.25,4.27.96l11.66-2.26c2.84-.55,4.76-3.22,4.38-6.09l-6.14-46.24ZM38.69,182.28l-5.43,1.05,6.03-9.16c-.06.98-.09,1.97-.09,2.96,0,1.79.13,3.46.34,5.05-.28.01-.56.03-.84.09ZM63.84,169.58c-.4,2.64-.84,4.56-1.26,5.94.18-2.91.71-6.26,1.58-10.01.14-.59.28-1.1.42-1.55-.12,1.16-.33,2.93-.74,5.61Z"/><path class="cls-5" d="M370.38,83.39c-1.28-1.21-3.06-1.73-4.8-1.39l-9.45,1.83c-2.3.45-4.06,2.31-4.38,4.63l-.84,6.18-2.14-4.99c-1.01-2.37-3.54-3.71-6.07-3.22l-10.64,2.06c-1,.19-1.89.67-2.62,1.33-.93-.34-1.94-.44-2.94-.25l-12.34,2.39-16.06,3.11c-.94.18-1.79.61-2.49,1.21-.88-.29-1.83-.37-2.77-.19l-28.4,5.51c-.47.09-.91.25-1.32.45-1.63.78-2.81,2.33-3.06,4.18l-.55,4.08c-.46-.55-.94-1.08-1.47-1.56-3.59-3.23-8.68-4.23-15.12-2.98l-17.26,3.35c-2.3.45-4.06,2.31-4.38,4.64l-.82,6.02c-4.19-6.12-10.83-8.66-19.2-7.04-7.86,1.52-14.17,6.29-18.74,14.16-4.24,7.29-6.39,15.5-6.39,24.41,0,4.74.8,8.87,2.38,12.28,1.7,3.66,4.17,6.52,7.35,8.49,2.4,1.5,5.19,2.25,8.34,2.25,1.4,0,2.86-.15,4.39-.44,3.02-.59,5.71-1.72,8.03-3.36.96.37,2,.47,3.03.28l5.71-1.11c1.05-.2,1.97-.71,2.71-1.41.64.26,1.33.39,2.02.39.35,0,.69-.03,1.04-.1l11.27-2.19c2.3-.45,4.06-2.31,4.38-4.63l.13-.91c.91,2.47,3.49,3.99,6.17,3.47l11.69-2.27c.91-.18,1.73-.6,2.43-1.18.54.17,1.1.28,1.67.28.35,0,.69-.03,1.04-.1l12.53-2.43,16.6-3.22c.81-.16,1.54-.5,2.18-.96.43.11.87.18,1.32.18.35,0,.69-.03,1.04-.1l29.13-5.65c.53-.1,1.01-.3,1.47-.54.3-.16.59-.32.85-.52.48.13.97.23,1.47.23.35,0,.69-.03,1.04-.1l9.63-1.87c2.3-.45,4.06-2.31,4.38-4.63l1.24-9.09,3.48,7.68c1.05,2.31,3.55,3.6,6.03,3.11l8.78-1.7c2.3-.45,4.06-2.31,4.38-4.64l6.6-48.71c.24-1.75-.38-3.5-1.66-4.71ZM202.62,135.03h0s0,0,0,0h0Z"/><path class="cls-1" d="M38.4,187.95l-1.48,10.81-32.28,6.26,1.36-10.03,20.55-31.36-15.74,3.05,1.45-10.56,30.32-5.88-1.27,9.21-21.08,32.02,18.19-3.53Z"/><path class="cls-1" d="M4.05,205.65l1.53-10.93,19.9-30.37-15.26,2.96,1.59-11.61,31.35-6.08-1.45,10.11-20.43,31.03,17.7-3.43-1.62,11.86-33.32,6.46ZM6.48,195.18l-1.25,9.22,31.25-6.06,1.33-9.77-18.67,3.62,21.67-32.92,1.16-8.41-29.28,5.68-1.3,9.52,16.22-3.14-21.13,32.26Z"/><path class="cls-1" d="M60.65,195.38c-4.67.91-8.73-.14-12.16-3.15-3.44-3-5.15-7.94-5.15-14.79,0-7.95,1.92-15.06,5.76-21.36,3.84-6.29,8.86-10.04,15.06-11.24,4.96-.96,9.03.19,12.22,3.45,3.18,3.26,4.78,8.03,4.78,14.31,0,8.01-1.89,15.18-5.67,21.51-3.78,6.33-8.73,10.08-14.83,11.27ZM60.74,184.31c2.05-.4,3.6-1.73,4.66-4.01s1.9-5.48,2.52-9.61c.62-4.13.93-6.9.93-8.31,0-2.43-.47-4.18-1.4-5.25-.94-1.07-2.18-1.45-3.72-1.16-2.95.57-5.03,3.44-6.23,8.61-1.2,5.17-1.79,9.65-1.79,13.45,0,4.84,1.68,6.94,5.04,6.28Z"/><path class="cls-1" d="M57.52,196.19c-3.49,0-6.63-1.2-9.36-3.59-3.53-3.09-5.33-8.19-5.33-15.17,0-8,1.96-15.27,5.84-21.62,3.9-6.39,9.08-10.25,15.39-11.47,5.11-.99,9.38.22,12.67,3.59,3.26,3.34,4.92,8.28,4.92,14.66,0,8.07-1.93,15.39-5.75,21.77-3.84,6.42-8.94,10.29-15.16,11.5-1.11.21-2.18.32-3.23.32ZM67.37,145.01c-1,0-2.04.1-3.12.31-6.02,1.17-10.98,4.87-14.73,11.01-3.78,6.18-5.69,13.28-5.69,21.1,0,6.67,1.68,11.53,4.98,14.42,3.3,2.88,7.25,3.91,11.74,3.03h0c5.93-1.15,10.8-4.86,14.49-11.03,3.72-6.22,5.6-13.37,5.6-21.26,0-6.11-1.56-10.81-4.64-13.96-2.35-2.41-5.25-3.62-8.65-3.62ZM59.61,184.93c-.99,0-1.83-.28-2.5-.83-1.29-1.06-1.91-3.04-1.91-6.07,0-3.82.61-8.38,1.81-13.56,1.24-5.35,3.47-8.37,6.62-8.99,1.72-.33,3.13.11,4.19,1.32,1.01,1.16,1.53,3.04,1.53,5.58,0,1.45-.3,4.19-.93,8.38-.62,4.15-1.48,7.43-2.56,9.75-1.13,2.42-2.82,3.87-5.02,4.29h0c-.43.08-.83.12-1.22.12ZM64.69,156.37c-.28,0-.57.03-.87.09-2.73.53-4.69,3.3-5.83,8.23-1.18,5.11-1.78,9.59-1.78,13.33,0,2.67.52,4.45,1.55,5.3.7.58,1.65.74,2.9.5h0c1.9-.37,3.3-1.59,4.3-3.73,1.04-2.23,1.87-5.41,2.48-9.47.61-4.08.92-6.86.92-8.24,0-2.3-.43-3.95-1.28-4.92-.63-.72-1.42-1.08-2.38-1.08Z"/><path class="cls-1" d="M123.44,134.56l-6.6,48.71-8.78,1.7-7.58-16.74c-2.06-4.58-3.37-8.27-3.91-11.06.04.69.06,1.23.06,1.62,0,1.3-.14,3.04-.43,5.23l-3.25,23.88-9.63,1.87,6.6-48.71,10.65-2.06,4.34,10.14c3.01,7.02,4.97,12.25,5.88,15.71-.06-.94-.09-1.64-.09-2.1,0-1.34.26-3.97.78-7.87l2.52-18.48,9.45-1.83Z"/><path class="cls-1" d="M82.72,190.39l6.74-49.75,11.39-2.21,4.5,10.51c2.16,5.05,3.8,9.21,4.89,12.44.1-1.49.34-3.67.73-6.57l2.56-18.84,10.49-2.03-6.74,49.75-9.52,1.85-7.74-17.1c-1.29-2.86-2.29-5.39-2.99-7.57-.07.94-.19,2.02-.35,3.22l-3.29,24.23-10.66,2.07ZM90.36,141.48l-6.46,47.66,8.59-1.67,3.2-23.52c.29-2.15.43-3.89.43-5.16,0-.39-.02-.92-.06-1.59l.99-.12c.53,2.74,1.84,6.42,3.88,10.95l7.42,16.38,8.04-1.56,6.46-47.66-8.42,1.63-2.47,18.13c-.52,3.86-.78,6.49-.78,7.8,0,.46.03,1.15.09,2.07l-.98.16c-.9-3.42-2.87-8.68-5.85-15.64l-4.18-9.77-9.9,1.92Z"/><path class="cls-1" d="M144.97,168.12l-10.58,2.05-3.69,10.41-9.79,1.9,18.29-50.97,12.4-2.4,6.14,46.24-11.66,2.26-1.1-9.48ZM144.26,158.46l-1.57-13.42-5.21,14.73,6.78-1.31Z"/><path class="cls-1" d="M120.14,183.14l18.69-52.07,13.2-2.56,6.27,47.23-12.66,2.45-1.1-9.48-9.77,1.89-3.69,10.41-10.94,2.12ZM139.57,131.94l-17.9,49.88,8.65-1.68,3.69-10.41,11.39-2.21,1.1,9.48,10.67-2.07-6-45.25-11.6,2.25ZM136.72,160.43l6.22-17.59,1.88,16.02-8.09,1.57ZM142.45,147.24l-4.2,11.88,5.47-1.06-1.27-10.82Z"/><path class="cls-1" d="M199.15,141.32l17.43-3.38-3.62,26.69-5.71,1.11-.35-5.14c-2.24,4.53-5.81,7.28-10.72,8.23-3.59.7-6.52.34-8.79-1.08-2.27-1.41-4.03-3.46-5.27-6.15s-1.87-6.01-1.87-9.97c0-7.97,1.88-15.19,5.65-21.66,3.76-6.48,8.78-10.32,15.06-11.54,8.86-1.72,14.41,2.29,16.65,12.03l-10.86,4.22c-.75-4.07-2.73-5.79-5.94-5.17-2.89.56-4.97,3.12-6.23,7.67-1.25,4.55-1.88,8.89-1.88,13.01,0,5.51,1.82,7.92,5.46,7.21,2.85-.55,4.87-2.9,6.07-7.05l-6.48,1.26,1.42-10.28Z"/><path class="cls-1" d="M192.85,169.67c-2.22,0-4.13-.5-5.73-1.49-2.34-1.46-4.18-3.6-5.46-6.37-1.27-2.74-1.92-6.17-1.92-10.18,0-8.02,1.92-15.39,5.71-21.92,3.82-6.57,9-10.54,15.39-11.78,9.13-1.77,14.93,2.4,17.23,12.4l.1.42-11.82,4.6-.11-.59c-.39-2.13-1.13-3.58-2.2-4.3-.83-.57-1.86-.72-3.15-.47-2.68.52-4.64,2.98-5.84,7.31-1.24,4.49-1.86,8.82-1.86,12.88,0,3.13.6,5.2,1.77,6.17.76.63,1.77.81,3.09.55,2.45-.47,4.28-2.46,5.44-5.91l-6.35,1.23,1.56-11.33,18.46-3.58-3.76,27.74-6.62,1.28-.27-4.01c-2.33,3.77-5.76,6.12-10.24,6.99-1.21.23-2.35.35-3.42.35ZM204.74,118.53c-1.16,0-2.39.13-3.7.38-6.1,1.18-11.05,4.98-14.72,11.3-3.7,6.37-5.58,13.57-5.58,21.41,0,3.87.61,7.16,1.82,9.76,1.2,2.59,2.91,4.58,5.08,5.94,2.15,1.34,4.99,1.68,8.43,1.01,4.72-.92,8.21-3.59,10.37-7.96l.82-1.66.43,6.43,4.81-.93,3.48-25.65-16.39,3.18-1.27,9.23,6.6-1.28-.23.79c-1.25,4.32-3.42,6.81-6.45,7.4-1.61.31-2.93.06-3.92-.76-1.44-1.18-2.13-3.45-2.13-6.94,0-4.15.64-8.57,1.9-13.15,1.3-4.73,3.53-7.43,6.61-8.03,1.54-.3,2.85-.09,3.9.62,1.19.81,2.03,2.27,2.5,4.36l9.9-3.85c-1.9-7.78-5.93-11.61-12.27-11.61Z"/><path class="cls-1" d="M248.11,137.94l4.28,19.05-11.69,2.27-3.48-17.36-4.68.91-2.52,18.52-11.27,2.19,6.6-48.71,17.26-3.35c4.69-.91,8.17-.35,10.42,1.68,2.26,2.03,3.39,5.16,3.39,9.4,0,6.79-2.77,11.92-8.3,15.4ZM233.92,132.67l4.45-.86c4.27-.83,6.41-2.98,6.41-6.45,0-2.92-1.79-4.03-5.38-3.34l-4.13.8-1.34,9.85Z"/><path class="cls-1" d="M218.15,164.13l6.74-49.75,17.61-3.41c4.83-.94,8.48-.33,10.85,1.8,2.36,2.12,3.55,5.41,3.55,9.77,0,6.81-2.77,12.07-8.24,15.64l4.32,19.21-12.69,2.46-3.48-17.36-3.84.74-2.52,18.52-12.31,2.39ZM225.79,115.23l-6.46,47.66,10.24-1.99,2.52-18.52,5.52-1.07,3.48,17.36,10.7-2.07-4.24-18.89.3-.19c5.36-3.37,8.07-8.41,8.07-14.98,0-4.07-1.08-7.11-3.22-9.03-2.12-1.91-5.49-2.43-10-1.56l-16.91,3.28ZM233.33,133.29l1.48-10.9,4.49-.87c2.16-.42,3.71-.22,4.73.62.83.68,1.24,1.76,1.24,3.21,0,3.73-2.29,6.07-6.81,6.94l-5.13.99ZM235.71,123.24l-1.2,8.8,3.76-.73c4.04-.78,6-2.73,6-5.96,0-1.13-.3-1.95-.88-2.43-.76-.63-2.08-.77-3.9-.41l-3.78.73Z"/><path class="cls-1" d="M288.19,139.14l-1.54,11.21-29.13,5.65,6.6-48.71,28.4-5.51-1.45,10.67-16.96,3.29-1.03,7.63,14.25-2.76-1.45,10.57-14.22,2.76-1.16,8.63,17.67-3.43Z"/><path class="cls-1" d="M256.94,156.61l6.74-49.75,29.44-5.71-1.59,11.72-16.96,3.29-.89,6.59,14.25-2.76-1.59,11.61-14.22,2.76-1.02,7.59,17.67-3.43-1.68,12.25-30.16,5.85ZM264.58,107.71l-6.46,47.66,28.09-5.45,1.39-10.16-17.66,3.43,1.3-9.68,14.22-2.76,1.3-9.52-14.25,2.76,1.17-8.68,16.96-3.29,1.31-9.62-27.37,5.31Z"/><path class="cls-1" d="M321.86,132.61l-1.54,11.21-29.13,5.65,6.6-48.71,28.4-5.51-1.45,10.67-16.96,3.29-1.03,7.63,14.25-2.76-1.45,10.57-14.22,2.76-1.16,8.63,17.67-3.43Z"/><path class="cls-1" d="M290.61,150.09l6.74-49.75,29.44-5.71-1.59,11.72-16.96,3.29-.89,6.59,14.25-2.76-1.59,11.61-14.22,2.76-1.02,7.59,17.67-3.43-1.68,12.25-30.16,5.85ZM298.24,101.18l-6.46,47.66,28.09-5.45,1.39-10.16-17.66,3.43,1.3-9.68,14.22-2.76,1.3-9.52-14.25,2.76,1.17-8.68,16.96-3.29,1.31-9.62-27.37,5.31Z"/><path class="cls-1" d="M365.29,87.67l-6.6,48.71-8.79,1.7-7.58-16.74c-2.06-4.58-3.37-8.27-3.91-11.06.04.69.06,1.23.06,1.62,0,1.3-.14,3.04-.43,5.23l-3.25,23.88-9.63,1.87,6.6-48.71,10.65-2.06,4.34,10.14c3.01,7.02,4.97,12.25,5.88,15.71-.06-.94-.09-1.64-.09-2.1,0-1.34.26-3.97.78-7.87l2.52-18.48,9.46-1.83Z"/><path class="cls-1" d="M324.57,143.5l6.74-49.75,11.39-2.21,4.5,10.51c2.16,5.04,3.8,9.21,4.89,12.44.1-1.51.35-3.71.73-6.57l2.56-18.84,10.49-2.03-6.74,49.75-9.53,1.85-7.74-17.1c-1.29-2.85-2.29-5.39-2.99-7.57-.07.94-.19,2.02-.35,3.22l-3.29,24.23-10.67,2.07ZM332.21,94.59l-6.46,47.66,8.59-1.67,3.2-23.52c.28-2.15.43-3.89.43-5.16,0-.39-.02-.92-.06-1.59l.99-.12c.53,2.74,1.84,6.42,3.88,10.95l7.42,16.38,8.04-1.56,6.46-47.66-8.42,1.63-2.47,18.13c-.51,3.85-.78,6.48-.78,7.8,0,.46.03,1.15.09,2.07l-.98.16c-.9-3.42-2.87-8.69-5.86-15.64l-4.18-9.77-9.9,1.92Z"/></svg>