<?xml version="1.0" encoding="UTF-8"?><svg id="Capa_1" xmlns="http://www.w3.org/2000/svg" viewBox="0 0 385 293.53"><defs><style>.cls-1{fill:#1d1d1b;}.cls-2{fill:#fff;}.cls-3{fill:none;}.cls-4{fill:#20a038;}.cls-5{fill:#33a548;}</style></defs><circle class="cls-2" cx="203.38" cy="147.37" r="101.61"/><path class="cls-2" d="M200.47.26C119.56.26,53.97,65.85,53.97,146.76s65.59,146.51,146.51,146.51,146.51-65.59,146.51-146.51S281.38.26,200.47.26ZM200.47,225.54c-43.51,0-78.78-35.27-78.78-78.78s35.27-78.78,78.78-78.78,78.78,35.27,78.78,78.78-35.27,78.78-78.78,78.78Z"/><path class="cls-1" d="M200.47,293.53c-39.2,0-76.06-15.27-103.78-42.99-27.72-27.72-42.99-64.58-42.99-103.78s15.27-76.06,42.99-103.78C124.41,15.27,161.27,0,200.47,0s76.06,15.27,103.78,42.99c27.72,27.72,42.99,64.58,42.99,103.78s-15.27,76.06-42.99,103.78c-27.72,27.72-64.58,42.99-103.78,42.99ZM200.47.52C119.83.52,54.22,66.12,54.22,146.76s65.61,146.25,146.25,146.25,146.25-65.61,146.25-146.25S281.11.52,200.47.52ZM200.47,225.8c-43.58,0-79.04-35.45-79.04-79.03s35.45-79.03,79.04-79.03,79.03,35.45,79.03,79.03-35.45,79.03-79.03,79.03ZM200.47,68.24c-43.3,0-78.52,35.22-78.52,78.52s35.22,78.52,78.52,78.52,78.52-35.22,78.52-78.52-35.22-78.52-78.52-78.52Z"/><path class="cls-5" d="M200.76,288.99c-78.19,0-141.81-63.62-141.81-141.81S122.56,5.38,200.76,5.38s141.81,63.62,141.81,141.81-63.62,141.81-141.81,141.81ZM200.76,6.41c-77.62,0-140.78,63.15-140.78,140.78s63.15,140.78,140.78,140.78,140.78-63.15,140.78-140.78S278.38,6.41,200.76,6.41Z"/><polygon class="cls-3" points="209.37 139.53 209.37 139.52 209.37 139.53 209.37 139.53"/><path class="cls-3" d="M200.76,64.74c-41.34,0-75.57,30.43-81.52,70.11l8.62-1.67c1.79-.35,3.63.19,4.96,1.44,1.32,1.25,1.96,3.06,1.72,4.87l-1.98,14.64,7.34-20.46c.67-1.88,2.29-3.26,4.25-3.64l12.81-2.48c1.52-.3,3.11.05,4.38.96,1.26.91,2.1,2.3,2.3,3.85l6.34,47.78c.39,2.97-1.59,5.72-4.53,6.29l-12.05,2.34c-1.55.3-3.14-.06-4.41-.99-1.27-.93-2.1-2.35-2.28-3.91l-.43-3.74-1.77.34-2.73,7.71c-.67,1.89-2.29,3.28-4.25,3.66l-5.37,1.04c14.78,22.15,39.99,36.75,68.63,36.75,39.8,0,73.01-28.2,80.74-65.72l-12.94,2.51c-.36.07-.72.1-1.08.1-.59,0-1.17-.11-1.72-.29-.72.6-1.57,1.04-2.51,1.22l-12.08,2.34c-2.77.53-5.44-1.03-6.38-3.59l-.13.94c-.33,2.4-2.15,4.33-4.52,4.79l-11.65,2.26c-.36.07-.72.1-1.08.1-.72,0-1.43-.14-2.09-.4-.76.72-1.72,1.25-2.8,1.46l-5.9,1.14c-1.06.21-2.15.1-3.13-.28-2.4,1.7-5.18,2.87-8.3,3.47-1.58.31-3.1.46-4.54.46-3.25,0-6.13-.78-8.61-2.32-3.28-2.04-5.83-5-7.59-8.78-1.63-3.52-2.46-7.78-2.46-12.69,0-9.21,2.22-17.69,6.6-25.23,4.73-8.13,11.24-13.05,19.37-14.63,8.64-1.68,15.51.95,19.84,7.27l.84-6.22c.33-2.4,2.15-4.33,4.53-4.79l17.83-3.46c6.66-1.29,11.91-.25,15.62,3.08.56.5,1.05,1.05,1.52,1.62l.57-4.22c.26-1.91,1.48-3.51,3.16-4.32-14.33-24.36-40.8-40.72-71.1-40.72Z"/><path class="cls-4" d="M303.34,159.68c-.36.07-.72.1-1.08.1-.46,0-.92-.08-1.36-.19-.66.48-1.42.83-2.25.99l-17.15,3.33c-7.73,37.51-40.94,65.72-80.74,65.72-28.63,0-53.84-14.6-68.63-36.75l-4.75.92c-.36.07-.72.1-1.08.1-.38,0-.75-.05-1.12-.12-.6.39-1.27.69-2.01.83l-9.08,1.76c-2.57.5-5.15-.83-6.23-3.22l-3.59-7.93-1.28,9.39c-.33,2.4-2.15,4.33-4.53,4.79l-9.95,1.93c-.36.07-.72.1-1.08.1-1.43,0-2.82-.54-3.88-1.54-1-.95-1.61-2.22-1.74-3.56-1.31,1.73-2.74,3.24-4.25,4.58,20.73,47.46,68.07,80.63,123.17,80.63,72.16,0,131.02-56.88,134.21-128.25-.48.25-.98.45-1.52.56l-30.1,5.84Z"/><path class="cls-4" d="M84.34,148.97c1.24,1.27,2.29,2.71,3.18,4.28l1.16-8.56c.33-2.4,2.15-4.33,4.53-4.79l11-2.13c2.62-.51,5.23.88,6.27,3.32l2.21,5.16.87-6.39c.33-2.4,2.15-4.33,4.53-4.79l1.15-.22c5.95-39.68,40.18-70.11,81.52-70.11,30.31,0,56.78,16.36,71.1,40.72.43-.21.88-.37,1.37-.47l29.35-5.69c.97-.19,1.95-.11,2.87.2.72-.61,1.6-1.06,2.57-1.25l16.6-3.22c-20.36-48.3-68.15-82.2-123.85-82.2-73.08,0-132.53,58.35-134.31,131,.05,0,.1-.02.14-.03,6.98-1.36,13.12.43,17.75,5.17Z"/><path class="cls-2" d="M163.63,132.35c-.2-1.54-1.04-2.94-2.3-3.85-1.26-.91-2.85-1.26-4.38-.96l-12.81,2.48c-1.96.38-3.57,1.76-4.25,3.64l-7.34,20.46,1.98-14.64c.24-1.81-.4-3.62-1.72-4.87-1.32-1.25-3.17-1.79-4.96-1.44l-8.62,1.67-1.15.22c-2.38.46-4.2,2.39-4.53,4.79l-.87,6.39-2.21-5.16c-1.05-2.45-3.66-3.83-6.27-3.32l-11,2.13c-2.38.46-4.2,2.39-4.53,4.79l-1.16,8.56c-.89-1.57-1.94-3.01-3.18-4.28-4.62-4.73-10.76-6.52-17.75-5.17-.05,0-.1.02-.14.03-6.16,1.23-11.41,4.4-15.69,9.42-.28-.91-.79-1.75-1.5-2.42-1.32-1.25-3.17-1.8-4.96-1.45l-31.32,6.07c-2.38.46-4.2,2.38-4.53,4.78l-1.5,10.92c-.25,1.81.39,3.62,1.72,4.87,1.32,1.25,3.17,1.79,4.96,1.44l3.12-.61-13.9,21.21c-.46.7-.76,1.5-.87,2.34l-1.41,10.36c-.24,1.81.4,3.62,1.72,4.87,1.06,1,2.45,1.54,3.88,1.54.36,0,.72-.03,1.08-.1l33.36-6.47c2.38-.46,4.2-2.39,4.53-4.78l.72-5.24c.59.7,1.22,1.37,1.91,1.97,3.76,3.29,8.22,4.97,13.07,4.97,1.4,0,2.84-.14,4.3-.42,4.7-.91,8.86-3.02,12.47-6.22,1.51-1.34,2.93-2.85,4.25-4.58.13,1.34.74,2.61,1.74,3.56,1.06,1,2.45,1.54,3.88,1.54.36,0,.72-.03,1.08-.1l9.95-1.93c2.38-.46,4.2-2.39,4.53-4.79l1.28-9.39,3.59,7.93c1.08,2.39,3.65,3.72,6.23,3.22l9.08-1.76c.74-.14,1.41-.44,2.01-.83.37.07.74.12,1.12.12.36,0,.72-.03,1.08-.1l4.75-.92,5.37-1.04c1.97-.38,3.58-1.77,4.25-3.66l2.73-7.71,1.77-.34.43,3.74c.18,1.56,1.01,2.98,2.28,3.91,1.27.93,2.87,1.29,4.41.99l12.05-2.34c2.94-.57,4.92-3.33,4.53-6.29l-6.34-47.78ZM39.98,188.35l-5.61,1.09,6.23-9.46c-.06,1.01-.1,2.03-.1,3.06,0,1.84.13,3.57.35,5.22-.29.01-.58.04-.87.09ZM65.97,175.22c-.41,2.73-.87,4.71-1.31,6.14.19-3,.74-6.47,1.63-10.34.14-.61.29-1.14.43-1.6-.12,1.19-.35,3.02-.76,5.8Z"/><path class="cls-1" d="M6.17,217.71c-1.58,0-3.09-.6-4.24-1.69-1.44-1.36-2.14-3.35-1.88-5.31l1.41-10.36c.12-.91.45-1.79.95-2.55l13.22-20.19-1.92.37c-1.95.37-3.97-.21-5.42-1.58-1.44-1.36-2.14-3.35-1.87-5.32l1.5-10.92c.36-2.62,2.34-4.72,4.94-5.22l31.32-6.07c1.94-.38,3.97.21,5.42,1.58.54.52.99,1.13,1.32,1.82,4.27-4.75,9.45-7.75,15.42-8.94l.15-.04c7.17-1.39,13.46.45,18.21,5.31.9.92,1.74,1.97,2.49,3.13l.96-7.12c.35-2.62,2.34-4.73,4.94-5.23l11-2.13c2.83-.54,5.71.98,6.85,3.63l1.47,3.44.62-4.54c.36-2.62,2.34-4.72,4.94-5.23l9.77-1.9c1.95-.38,3.97.21,5.41,1.57,1.44,1.36,2.14,3.35,1.88,5.31l-1.32,9.78,5.69-15.85c.73-2.04,2.51-3.56,4.63-3.97l12.81-2.48c1.66-.32,3.4.06,4.78,1.05,1.37.99,2.29,2.52,2.51,4.2l6.34,47.78c.43,3.23-1.74,6.25-4.94,6.87l-12.05,2.34c-1.68.33-3.43-.06-4.82-1.08-1.38-1.01-2.29-2.57-2.49-4.27l-.37-3.18-.94.18-2.63,7.43c-.73,2.05-2.51,3.58-4.64,4l-10.12,1.96c-.7.14-1.39.16-2.19.02-.64.39-1.32.66-2.02.8l-9.08,1.76c-2.82.55-5.61-.9-6.79-3.51l-2.85-6.29-1.04,7.61c-.36,2.62-2.34,4.72-4.94,5.23l-9.95,1.93c-1.92.37-3.98-.21-5.41-1.57-.79-.75-1.37-1.69-1.68-2.73-1.1,1.34-2.31,2.61-3.61,3.76-3.71,3.29-7.98,5.42-12.71,6.34-6.6,1.28-12.88-.36-17.8-4.67-.4-.35-.81-.74-1.21-1.18l-.56,4.12c-.36,2.62-2.34,4.72-4.94,5.22l-33.36,6.47c-.39.07-.78.11-1.17.11ZM17.85,176.13l-14.57,22.24c-.42.63-.69,1.37-.79,2.12l-1.41,10.36c-.22,1.64.36,3.29,1.56,4.42,1.19,1.13,2.89,1.63,4.5,1.31l33.36-6.47c2.16-.42,3.81-2.17,4.11-4.35l.87-6.38.75.88c.64.76,1.25,1.39,1.86,1.92,3.67,3.21,7.96,4.84,12.73,4.84,1.37,0,2.78-.14,4.2-.41,4.54-.88,8.65-2.93,12.22-6.09,1.54-1.36,2.94-2.88,4.18-4.51l.8-1.05.13,1.31c.12,1.24.68,2.38,1.58,3.23,1.2,1.13,2.92,1.62,4.51,1.31l9.95-1.93c2.16-.42,3.81-2.17,4.11-4.35l1.52-11.17,4.33,9.57c.98,2.18,3.31,3.38,5.66,2.92l9.08-1.76c.63-.12,1.24-.38,1.83-.76l.18-.12.21.04c.75.15,1.37.14,1.99.02l10.12-1.96c1.78-.34,3.26-1.62,3.87-3.33l2.83-7.99,2.61-.51.5,4.29c.16,1.42.92,2.71,2.07,3.55,1.15.84,2.61,1.17,4.01.9l12.05-2.34c2.66-.52,4.47-3.03,4.11-5.72l-6.34-47.78c-.18-1.4-.95-2.67-2.09-3.49-1.15-.82-2.6-1.14-3.98-.87l-12.81,2.48c-1.77.34-3.25,1.61-3.86,3.31l-9,25.08,2.64-19.5c.22-1.64-.36-3.29-1.56-4.42-1.2-1.13-2.88-1.62-4.51-1.31l-9.77,1.9c-2.16.42-3.82,2.17-4.11,4.35l-1.12,8.24-2.95-6.88c-.94-2.21-3.34-3.48-5.7-3.02l-11,2.13c-2.16.42-3.82,2.17-4.11,4.35l-1.37,10.08-.75-1.33c-.9-1.59-1.94-3-3.1-4.18-4.5-4.61-10.47-6.34-17.28-5.02l-.15.04c-5.99,1.19-11.18,4.3-15.39,9.24l-.61.71-.28-.89c-.26-.85-.74-1.61-1.36-2.2-1.2-1.14-2.89-1.63-4.51-1.31l-31.33,6.07c-2.16.42-3.81,2.16-4.11,4.35l-1.5,10.92c-.23,1.64.36,3.29,1.56,4.43,1.2,1.14,2.88,1.63,4.51,1.31l4.32-.84ZM33.26,190.17l7.96-12.09-.11,1.91c-.06,1.15-.09,2.11-.09,3.03,0,1.7.11,3.39.34,5.15l.07.56-.57.02c-.31.01-.56.04-.79.08h0l-6.82,1.32ZM40,181.81l-4.53,6.88,4.41-.85c.13-.02.25-.04.39-.06-.19-1.62-.28-3.17-.28-4.74,0-.4,0-.8.02-1.22ZM63.86,185.78l.28-4.44c.19-3.02.74-6.53,1.65-10.43.15-.62.29-1.17.44-1.64l1.51-4.77-.5,4.98c-.15,1.46-.4,3.42-.76,5.83h0c-.36,2.42-.81,4.51-1.32,6.21l-1.29,4.26Z"/><path class="cls-2" d="M382.71,86.17c-1.32-1.25-3.16-1.79-4.96-1.44l-9.77,1.89c-2.38.46-4.2,2.39-4.53,4.79l-.87,6.39-2.21-5.16c-1.05-2.45-3.66-3.83-6.27-3.32l-11,2.13c-1.04.2-1.96.69-2.71,1.37-.96-.36-2.01-.46-3.04-.26l-12.75,2.47-16.6,3.22c-.98.19-1.85.63-2.57,1.25-.91-.3-1.89-.38-2.87-.2l-29.35,5.69c-.48.09-.94.26-1.37.47-1.68.81-2.9,2.41-3.16,4.32l-.57,4.22c-.47-.57-.97-1.12-1.52-1.62-3.71-3.33-8.97-4.37-15.62-3.08l-17.83,3.46c-2.38.46-4.2,2.39-4.53,4.79l-.84,6.22c-4.32-6.32-11.19-8.95-19.84-7.27-8.12,1.58-14.64,6.5-19.37,14.63-4.38,7.53-6.6,16.02-6.6,25.23,0,4.9.83,9.17,2.46,12.69,1.76,3.78,4.31,6.73,7.59,8.78,2.48,1.55,5.37,2.32,8.61,2.32,1.44,0,2.96-.15,4.54-.46,3.12-.6,5.9-1.78,8.3-3.47.99.39,2.07.49,3.13.28l5.9-1.14c1.08-.21,2.04-.73,2.8-1.46.66.26,1.37.4,2.09.4.36,0,.72-.03,1.08-.1l11.65-2.26c2.38-.46,4.2-2.39,4.52-4.79l.13-.94c.94,2.56,3.61,4.12,6.38,3.59l12.08-2.34c.94-.18,1.79-.62,2.51-1.22.56.18,1.13.29,1.72.29.36,0,.72-.03,1.08-.1l12.94-2.51,17.15-3.33c.84-.16,1.6-.51,2.25-.99.45.11.9.19,1.36.19.36,0,.72-.03,1.08-.1l30.1-5.84c.55-.11,1.05-.31,1.52-.56.31-.16.61-.33.88-.54.49.14,1,.23,1.52.23.36,0,.72-.03,1.08-.1l9.95-1.93c2.38-.46,4.2-2.39,4.53-4.79l1.28-9.39,3.59,7.93c1.08,2.38,3.66,3.72,6.23,3.22l9.08-1.76c2.38-.46,4.2-2.39,4.53-4.79l6.82-50.33c.24-1.81-.4-3.62-1.72-4.87ZM209.37,139.53h0s0,0,0,0h0Z"/><path class="cls-1" d="M200.62,180.66c-3.34,0-6.33-.81-8.88-2.4-3.37-2.1-5.99-5.12-7.79-9-1.66-3.59-2.5-7.93-2.5-12.91,0-9.3,2.24-17.87,6.67-25.49,4.81-8.27,11.44-13.27,19.72-14.88,8.32-1.61,15.07.61,19.6,6.44l.67-4.95c.36-2.62,2.34-4.73,4.94-5.23l17.83-3.46c6.82-1.32,12.23-.25,16.07,3.2.27.25.54.51.82.81l.42-3.09c.28-2.05,1.57-3.81,3.45-4.72.52-.25,1.01-.42,1.49-.51l29.35-5.69c.93-.18,1.92-.14,2.85.13.77-.59,1.66-1,2.59-1.18l29.35-5.69c1-.19,2.04-.13,3.02.18.8-.66,1.73-1.1,2.72-1.29l11-2.13c2.83-.54,5.71.98,6.85,3.63l1.47,3.44.62-4.54c.36-2.62,2.34-4.72,4.94-5.23l9.77-1.89c1.95-.37,3.97.21,5.41,1.57h0c1.44,1.36,2.14,3.35,1.88,5.31l-6.82,50.33c-.35,2.62-2.34,4.72-4.94,5.23l-9.08,1.76c-2.8.55-5.61-.89-6.79-3.51l-2.85-6.3-1.04,7.61c-.36,2.62-2.34,4.72-4.94,5.23l-9.95,1.93c-.8.16-1.61.17-2.58-.07-.25.17-.5.31-.75.43-.59.31-1.13.51-1.66.61l-30.1,5.84c-.77.15-1.51.17-2.43-.04-.7.47-1.46.79-2.26.95l-30.1,5.84c-.9.17-1.8.15-2.79-.12-.77.58-1.64.98-2.53,1.15l-12.08,2.34c-2.43.47-4.84-.54-6.21-2.48-.56,2.34-2.43,4.16-4.83,4.62l-11.65,2.26c-1.04.2-2.14.13-3.15-.21-.82.7-1.78,1.17-2.82,1.37l-5.91,1.14c-1.05.21-2.14.13-3.16-.21-2.42,1.66-5.2,2.8-8.28,3.4-1.61.31-3.17.47-4.64.47h0ZM212.87,116.52c-1.54,0-3.15.16-4.83.49-7.97,1.55-14.37,6.39-19.02,14.38-4.33,7.45-6.53,15.85-6.53,24.97,0,4.83.81,9.02,2.41,12.47,1.71,3.69,4.2,6.57,7.39,8.55,2.39,1.49,5.19,2.24,8.33,2.24h0c1.4,0,2.9-.15,4.44-.45,3.03-.59,5.75-1.73,8.1-3.39l.23-.16.26.1c.91.36,1.9.45,2.85.26l5.91-1.14c.94-.18,1.82-.64,2.54-1.32l.24-.23.31.12c.92.37,1.93.46,2.88.27l11.65-2.26c2.16-.42,3.81-2.17,4.11-4.35l.41-2.99.71,1.94c.87,2.37,3.32,3.73,5.8,3.26l12.08-2.34c.82-.16,1.59-.53,2.28-1.11l.22-.18.27.09c.93.3,1.73.33,2.54.17l30.1-5.84c.73-.14,1.42-.45,2.05-.9l.19-.14.24.06c.89.22,1.53.21,2.21.08l30.1-5.84c.44-.08.88-.25,1.38-.51.27-.14.56-.3.8-.49l.21-.16.25.07c.93.26,1.64.26,2.35.12l9.95-1.93c2.16-.42,3.81-2.17,4.11-4.35l1.52-11.17,4.33,9.57c.99,2.18,3.31,3.39,5.66,2.92l9.08-1.76c2.16-.42,3.82-2.17,4.11-4.35l6.82-50.33c.22-1.64-.36-3.29-1.56-4.42h0c-1.2-1.13-2.89-1.63-4.51-1.31l-9.77,1.89c-2.16.42-3.81,2.17-4.11,4.35l-1.12,8.24-2.95-6.87c-.94-2.21-3.34-3.48-5.7-3.02l-11,2.13c-.9.17-1.75.6-2.46,1.25l-.23.21-.29-.11c-.89-.33-1.85-.41-2.76-.23l-29.35,5.69c-.85.16-1.66.56-2.34,1.14l-.22.19-.28-.09c-.85-.28-1.75-.35-2.6-.18l-29.35,5.69c-.39.08-.8.22-1.24.43-1.57.75-2.64,2.22-2.87,3.93l-.73,5.39-.75-.91c-.52-.63-.99-1.13-1.47-1.56-3.58-3.22-8.69-4.21-15.18-2.96l-17.83,3.46c-2.16.42-3.82,2.17-4.11,4.35l-1.02,7.55-.76-1.11c-3.41-4.99-8.36-7.55-14.48-7.55ZM208.4,140.3l1.49-2.97v2.59l-1.49.38Z"/><path class="cls-1" d="M39.68,194.21l-1.53,11.17-33.36,6.47,1.41-10.36,21.23-32.41-16.26,3.15,1.5-10.92,31.32-6.07-1.32,9.52-21.78,33.09,18.79-3.64Z"/><path class="cls-1" d="M4.18,212.49l1.58-11.29,20.56-31.39-15.77,3.06,1.64-12,32.4-6.28-1.49,10.45-21.11,32.06,18.29-3.55-1.67,12.26-34.43,6.68ZM6.69,201.67l-1.29,9.53,32.29-6.26,1.38-10.09-19.29,3.74,22.39-34.02,1.2-8.69-30.25,5.87-1.35,9.83,16.76-3.25-21.84,33.33Z"/><path class="cls-1" d="M62.67,201.88c-4.83.94-9.02-.15-12.57-3.25-3.55-3.1-5.33-8.2-5.33-15.29,0-8.21,1.98-15.57,5.95-22.07,3.97-6.5,9.15-10.37,15.56-11.62,5.13-.99,9.33.2,12.63,3.57,3.29,3.37,4.94,8.3,4.94,14.79,0,8.28-1.95,15.69-5.86,22.23-3.91,6.54-9.02,10.42-15.32,11.64ZM62.76,190.45c2.11-.41,3.72-1.79,4.82-4.15s1.96-5.66,2.6-9.93c.64-4.27.96-7.13.96-8.59,0-2.51-.48-4.32-1.45-5.43-.97-1.1-2.25-1.5-3.84-1.19-3.05.59-5.2,3.56-6.43,8.89-1.24,5.34-1.85,9.97-1.85,13.9,0,5,1.73,7.17,5.21,6.49Z"/><path class="cls-1" d="M59.43,202.72c-3.61,0-6.85-1.24-9.67-3.71-3.65-3.19-5.5-8.47-5.5-15.67,0-8.27,2.03-15.78,6.03-22.34,4.03-6.6,9.38-10.59,15.9-11.85,5.28-1.03,9.69.22,13.09,3.71,3.37,3.46,5.08,8.55,5.08,15.15,0,8.34-2,15.9-5.94,22.49-3.97,6.64-9.24,10.64-15.66,11.88-1.14.22-2.26.33-3.33.33ZM69.61,149.84c-1.03,0-2.1.11-3.22.32-6.22,1.21-11.34,5.03-15.22,11.38-3.9,6.39-5.88,13.72-5.88,21.8,0,6.9,1.73,11.91,5.15,14.9,3.41,2.98,7.49,4.04,12.13,3.14h0c6.12-1.19,11.16-5.02,14.97-11.4,3.84-6.43,5.79-13.82,5.79-21.96,0-6.32-1.61-11.17-4.79-14.43-2.43-2.49-5.43-3.75-8.94-3.75ZM61.6,191.08c-1.03,0-1.89-.29-2.59-.86-1.33-1.1-1.97-3.15-1.97-6.27,0-3.95.63-8.66,1.87-14.01,1.28-5.53,3.58-8.65,6.84-9.28,1.78-.34,3.24.11,4.33,1.36,1.05,1.2,1.58,3.14,1.58,5.77,0,1.5-.31,4.33-.96,8.66-.64,4.29-1.53,7.68-2.65,10.07-1.16,2.5-2.91,3.99-5.19,4.44h0c-.44.09-.86.13-1.26.13ZM66.84,161.58c-.29,0-.59.03-.9.09-2.82.55-4.85,3.41-6.03,8.5-1.22,5.28-1.84,9.91-1.84,13.78,0,2.76.54,4.6,1.6,5.47.72.6,1.7.76,2.99.51h0c1.96-.38,3.41-1.64,4.45-3.86,1.07-2.3,1.93-5.59,2.56-9.79.63-4.22.95-7.08.95-8.51,0-2.37-.45-4.08-1.32-5.09-.66-.75-1.46-1.12-2.45-1.12Z"/><path class="cls-1" d="M127.55,139.04l-6.82,50.33-9.08,1.76-7.83-17.3c-2.13-4.73-3.48-8.54-4.04-11.42.04.71.06,1.27.06,1.68,0,1.34-.15,3.14-.45,5.4l-3.35,24.67-9.95,1.93,6.82-50.33,11-2.13,4.49,10.48c3.11,7.25,5.13,12.66,6.07,16.24-.06-.97-.09-1.69-.09-2.17,0-1.39.27-4.1.81-8.13l2.6-19.1,9.77-1.89Z"/><path class="cls-1" d="M85.47,196.73l6.97-51.41,11.77-2.28,4.65,10.86c2.24,5.21,3.93,9.52,5.05,12.86.1-1.54.35-3.79.75-6.79l2.65-19.47,10.84-2.1-6.97,51.41-9.84,1.91-8-17.67c-1.33-2.95-2.36-5.57-3.09-7.82-.08.98-.2,2.09-.36,3.33l-3.4,25.04-11.02,2.14ZM93.36,146.19l-6.68,49.25,8.88-1.72,3.3-24.3c.3-2.22.44-4.02.44-5.33,0-.4-.02-.95-.06-1.65l1.02-.13c.55,2.83,1.9,6.63,4.01,11.31l7.66,16.92,8.31-1.61,6.68-49.25-8.7,1.69-2.55,18.73c-.53,3.99-.8,6.7-.8,8.06,0,.47.03,1.19.09,2.14l-1.02.16c-.93-3.53-2.96-8.97-6.05-16.16l-4.32-10.09-10.23,1.98Z"/><path class="cls-1" d="M149.8,173.72l-10.93,2.12-3.81,10.76-10.12,1.96,18.9-52.67,12.81-2.48,6.34,47.78-12.05,2.34-1.14-9.8ZM149.07,163.73l-1.62-13.87-5.38,15.22,7.01-1.36Z"/><path class="cls-1" d="M124.14,189.24l19.31-53.8,13.64-2.64,6.48,48.8-13.08,2.53-1.14-9.8-10.09,1.96-3.81,10.76-11.3,2.19ZM144.22,136.33l-18.5,51.54,8.94-1.73,3.81-10.76,11.77-2.28,1.14,9.8,11.03-2.14-6.2-46.75-11.99,2.32ZM141.27,165.77l6.42-18.17,1.94,16.55-8.36,1.62ZM147.19,152.14l-4.34,12.28,5.65-1.09-1.31-11.18Z"/><path class="cls-1" d="M205.78,146.02l18.01-3.49-3.74,27.58-5.91,1.14-.36-5.32c-2.31,4.69-6.01,7.52-11.08,8.5-3.71.72-6.74.35-9.09-1.11-2.35-1.46-4.16-3.58-5.45-6.36-1.29-2.78-1.93-6.21-1.93-10.31,0-8.23,1.94-15.7,5.83-22.39,3.89-6.69,9.07-10.66,15.56-11.92,9.16-1.77,14.89,2.37,17.2,12.43l-11.22,4.37c-.78-4.21-2.82-5.99-6.13-5.35-2.99.58-5.14,3.22-6.43,7.93-1.3,4.7-1.94,9.19-1.94,13.45,0,5.7,1.88,8.18,5.64,7.45,2.94-.57,5.03-3,6.27-7.28l-6.7,1.3,1.47-10.62Z"/><path class="cls-1" d="M199.28,175.31c-2.29,0-4.27-.51-5.92-1.54-2.42-1.51-4.32-3.72-5.64-6.58-1.31-2.83-1.98-6.37-1.98-10.52,0-8.29,1.99-15.91,5.9-22.65,3.95-6.79,9.3-10.89,15.91-12.17,9.44-1.83,15.43,2.48,17.8,12.82l.1.43-12.22,4.75-.11-.61c-.41-2.2-1.17-3.7-2.28-4.45-.86-.58-1.92-.74-3.25-.48-2.77.54-4.8,3.08-6.03,7.56-1.28,4.64-1.93,9.11-1.93,13.31,0,3.23.62,5.37,1.83,6.37.79.65,1.83.84,3.19.57,2.53-.49,4.42-2.54,5.62-6.1l-6.56,1.27,1.61-11.71,19.08-3.7-3.88,28.66-6.84,1.33-.28-4.15c-2.4,3.9-5.96,6.33-10.58,7.22-1.25.24-2.43.36-3.54.36ZM211.56,122.48c-1.19,0-2.47.13-3.82.39-6.3,1.22-11.42,5.15-15.21,11.67-3.82,6.58-5.76,14.02-5.76,22.13,0,4,.63,7.39,1.88,10.09,1.24,2.67,3.01,4.74,5.25,6.14,2.22,1.38,5.15,1.74,8.72,1.04,4.88-.95,8.48-3.71,10.71-8.22l.85-1.72.45,6.64,4.97-.96,3.59-26.5-16.94,3.29-1.32,9.54,6.82-1.32-.23.81c-1.29,4.47-3.53,7.04-6.67,7.65-1.66.32-3.02.06-4.05-.79-1.48-1.22-2.2-3.57-2.2-7.17,0-4.29.66-8.86,1.96-13.58,1.35-4.89,3.64-7.68,6.83-8.3,1.59-.31,2.95-.09,4.03.64,1.23.84,2.09,2.35,2.58,4.51l10.23-3.98c-1.96-8.04-6.13-11.99-12.67-11.99Z"/><path class="cls-1" d="M256.37,142.53l4.42,19.68-12.08,2.34-3.59-17.94-4.83.94-2.61,19.14-11.65,2.26,6.82-50.33,17.83-3.46c4.85-.94,8.44-.36,10.77,1.74,2.34,2.1,3.5,5.33,3.5,9.71,0,7.01-2.86,12.32-8.58,15.92ZM241.71,137.08l4.59-.89c4.42-.86,6.62-3.08,6.62-6.67,0-3.02-1.85-4.16-5.56-3.45l-4.27.83-1.39,10.18Z"/><path class="cls-1" d="M225.42,169.6l6.97-51.41,18.2-3.53c4.99-.97,8.77-.34,11.21,1.86,2.44,2.19,3.67,5.59,3.67,10.1,0,7.04-2.86,12.48-8.51,16.16l4.46,19.85-13.11,2.54-3.59-17.94-3.97.77-2.61,19.14-12.72,2.47ZM233.31,119.06l-6.68,49.25,10.58-2.05,2.61-19.14,5.7-1.11,3.59,17.94,11.06-2.14-4.39-19.52.31-.19c5.53-3.48,8.34-8.69,8.34-15.48,0-4.21-1.12-7.35-3.33-9.33-2.19-1.97-5.67-2.51-10.33-1.61l-17.47,3.39ZM241.1,137.73l1.53-11.26,4.64-.9c2.24-.43,3.84-.22,4.89.64.85.7,1.28,1.82,1.28,3.31,0,3.86-2.37,6.27-7.04,7.18l-5.3,1.03ZM243.56,127.34l-1.24,9.1,3.89-.75c4.17-.81,6.2-2.82,6.2-6.16,0-1.17-.31-2.02-.91-2.52-.79-.65-2.14-.79-4.03-.42l-3.91.76Z"/><path class="cls-1" d="M297.79,143.77l-1.59,11.58-30.1,5.84,6.82-50.33,29.35-5.69-1.5,11.03-17.52,3.4-1.06,7.89,14.72-2.85-1.5,10.92-14.69,2.85-1.2,8.92,18.25-3.54Z"/><path class="cls-1" d="M265.49,161.83l6.97-51.41,30.42-5.9-1.64,12.11-17.52,3.4-.92,6.81,14.72-2.85-1.64,12-14.69,2.85-1.05,7.84,18.26-3.54-1.73,12.66-31.17,6.04ZM273.39,111.29l-6.68,49.25,29.03-5.63,1.44-10.5-18.25,3.54,1.34-10,14.69-2.85,1.35-9.84-14.72,2.85,1.21-8.97,17.52-3.4,1.35-9.94-28.28,5.48Z"/><path class="cls-1" d="M332.57,137.02l-1.59,11.58-30.1,5.84,6.82-50.33,29.35-5.69-1.5,11.02-17.52,3.4-1.06,7.89,14.72-2.85-1.5,10.92-14.69,2.85-1.2,8.92,18.25-3.54Z"/><path class="cls-1" d="M300.28,155.08l6.97-51.41,30.42-5.9-1.64,12.11-17.52,3.4-.92,6.81,14.72-2.85-1.64,12-14.69,2.85-1.05,7.84,18.26-3.54-1.73,12.66-31.17,6.04ZM308.17,104.55l-6.68,49.25,29.03-5.63,1.44-10.5-18.25,3.54,1.34-10,14.69-2.85,1.35-9.84-14.72,2.85,1.21-8.97,17.52-3.4,1.35-9.94-28.28,5.48Z"/><path class="cls-1" d="M377.45,90.59l-6.82,50.33-9.08,1.76-7.83-17.3c-2.13-4.73-3.48-8.54-4.04-11.42.04.71.06,1.27.06,1.68,0,1.34-.15,3.14-.45,5.4l-3.35,24.67-9.95,1.93,6.82-50.33,11-2.13,4.49,10.47c3.11,7.25,5.13,12.66,6.07,16.24-.06-.97-.09-1.7-.09-2.17,0-1.39.27-4.1.81-8.13l2.6-19.1,9.77-1.89Z"/><path class="cls-1" d="M335.38,148.28l6.97-51.41,11.77-2.28,4.65,10.86c2.24,5.21,3.93,9.52,5.05,12.86.11-1.56.36-3.83.75-6.79l2.65-19.47,10.84-2.1-6.97,51.41-9.84,1.91-8-17.67c-1.33-2.95-2.36-5.57-3.09-7.82-.07.98-.19,2.09-.36,3.33l-3.4,25.04-11.02,2.14ZM343.27,97.74l-6.68,49.25,8.88-1.72,3.3-24.3c.29-2.23.44-4.02.44-5.33,0-.4-.02-.95-.06-1.65l1.02-.13c.55,2.83,1.9,6.64,4.01,11.31l7.66,16.92,8.31-1.61,6.68-49.25-8.7,1.69-2.55,18.73c-.53,3.98-.8,6.69-.8,8.06,0,.47.03,1.19.09,2.14l-1.02.16c-.93-3.54-2.97-8.98-6.05-16.16l-4.32-10.09-10.23,1.98Z"/></svg>